<svg width="16" height="16" viewBox="0 0 16 16" fill="none" xmlns="http://www.w3.org/2000/svg">
<path fill-rule="evenodd" clip-rule="evenodd" d="M15.4488 14.6407L11.1333 10.3253C13.2875 7.73904 13.0265 3.91586 10.5408 1.64639C8.05515 -0.623084 4.22405 -0.536026 1.84401 1.84401C-0.536026 4.22405 -0.623084 8.05515 1.64639 10.5408C3.91586 13.0265 7.73904 13.2875 10.3253 11.1333L14.6407 15.4488L15.4488 14.6407ZM1.16309 6.30595C1.16309 3.46562 3.46562 1.16309 6.30595 1.16309C9.14627 1.16309 11.4488 3.46562 11.4488 6.30595C11.4488 9.14627 9.14627 11.4488 6.30595 11.4488C3.46693 11.4457 1.16624 9.14496 1.16309 6.30595Z" fill="black"/>
</svg>
