<svg width="20" height="18" viewBox="0 0 20 18" fill="none" xmlns="http://www.w3.org/2000/svg">
<path fill-rule="evenodd" clip-rule="evenodd" d="M19.5 2.8295H16.0393C15.7182 1.24821 14.3278 0.111816 12.7143 0.111816C11.1007 0.111816 9.71038 1.24821 9.38929 2.8295H0.5V4.18665H9.38929C9.71038 5.76794 11.1007 6.90433 12.7143 6.90433C14.3278 6.90433 15.7182 5.76794 16.0393 4.18665H19.5V2.8295ZM12.7143 5.54379C11.59 5.54379 10.6786 4.63237 10.6786 3.50807C10.6786 2.38378 11.59 1.47236 12.7143 1.47236C13.8386 1.47236 14.75 2.38378 14.75 3.50807C14.75 4.63237 13.8386 5.54379 12.7143 5.54379ZM0.5 15.0438H3.96071C4.28181 16.6251 5.67215 17.7615 7.28571 17.7615C8.89928 17.7615 10.2896 16.6251 10.6107 15.0438H19.5V13.6866H10.6107C10.2896 12.1054 8.89928 10.969 7.28571 10.969C5.67215 10.969 4.28181 12.1054 3.96071 13.6866H0.5V15.0438ZM5.25 14.3652C5.25 13.2409 6.16142 12.3295 7.28571 12.3295C8.41001 12.3295 9.32143 13.2409 9.32143 14.3652C9.32143 15.4895 8.41001 16.4009 7.28571 16.4009C6.16142 16.4009 5.25 15.4895 5.25 14.3652Z" fill="black"/>
</svg>
