<svg width="14" height="13" viewBox="0 0 14 13" fill="none" xmlns="http://www.w3.org/2000/svg">
<path d="M7 0C3.13359 0 0 3.20732 0 7.16469C0 9.50861 1.09922 11.5895 2.8 12.8964L2.80137 12.8936C2.88477 12.9594 2.99004 13 3.10352 13C3.37559 13 3.5957 12.7747 3.5957 12.4962C3.5957 12.3115 3.49863 12.1506 3.35371 12.0624C2.83691 11.6594 2.38574 11.171 2.0207 10.6197L2.625 10.2629C2.83418 10.1397 2.90527 9.86545 2.78496 9.65135C2.66465 9.43724 2.39668 9.36448 2.1875 9.48762L1.5832 9.84446C1.25918 9.16157 1.05547 8.40732 1.00078 7.61249H1.69531C1.9373 7.61249 2.13281 7.41238 2.13281 7.16469C2.13281 6.91701 1.9373 6.7169 1.69531 6.7169H1.00078C1.05684 5.91927 1.26191 5.16362 1.58594 4.47793L2.1875 4.83337C2.39668 4.95651 2.66465 4.88375 2.78496 4.66964C2.90527 4.45554 2.83418 4.18127 2.625 4.05813L2.0248 3.70409C2.45137 3.06319 2.99277 2.50904 3.61895 2.07244L3.96484 2.68676C4.08516 2.90086 4.35312 2.97363 4.5623 2.85048C4.77148 2.72734 4.84258 2.45307 4.72227 2.23897L4.375 1.62325C5.04355 1.2902 5.78184 1.0817 6.5625 1.02433V1.7352C6.5625 1.98288 6.75801 2.18299 7 2.18299C7.24199 2.18299 7.4375 1.98288 7.4375 1.7352V1.02433C8.21406 1.0817 8.95098 1.2902 9.61816 1.62045L9.26953 2.23897C9.14922 2.45307 9.22031 2.72734 9.42949 2.85048C9.63867 2.97363 9.90664 2.90086 10.027 2.68676L10.3756 2.06825C11.0045 2.50484 11.5473 3.06039 11.9752 3.70409L11.375 4.05813C11.1658 4.18127 11.0947 4.45554 11.215 4.66964C11.3354 4.88375 11.6033 4.95651 11.8125 4.83337L12.4141 4.47793C12.7395 5.16222 12.9432 5.91927 12.9992 6.7169H12.3047C12.0627 6.7169 11.8672 6.91701 11.8672 7.16469C11.8672 7.41238 12.0627 7.61249 12.3047 7.61249H12.9992C12.9432 8.40872 12.7395 9.16157 12.4168 9.84446L11.8125 9.48762C11.6033 9.36448 11.3354 9.43724 11.215 9.65135C11.0947 9.86545 11.1658 10.1397 11.375 10.2629L11.9793 10.6197C11.6047 11.185 11.1412 11.6818 10.6094 12.0904L10.6121 12.0946C10.4932 12.187 10.418 12.3325 10.418 12.4962C10.418 12.7747 10.6381 13 10.9102 13C11.0469 13 11.1713 12.9426 11.2615 12.8489C12.9268 11.5405 14 9.48062 14 7.16469C14 3.20732 10.8664 0 7 0Z" fill="black" fill-opacity="0.7"/>
<path d="M9.15469 4.88092L7.43613 6.25508C7.30488 6.18791 7.15586 6.15153 7 6.15153C6.45586 6.15153 6.01562 6.60212 6.01562 7.15907C6.01562 7.71601 6.45586 8.1666 7 8.1666C7.54414 8.1666 7.98438 7.71601 7.98438 7.15907C7.98438 7.0933 7.97891 7.03033 7.9666 6.96875L9.69336 5.58619C9.8834 5.43366 9.91758 5.15239 9.76855 4.95788C9.61953 4.76337 9.34473 4.72839 9.15469 4.88092Z" fill="black" fill-opacity="0.7"/>
</svg>
