<svg width="18" height="19" viewBox="0 0 18 19" fill="none" xmlns="http://www.w3.org/2000/svg">
<path fill-rule="evenodd" clip-rule="evenodd" d="M17.6702 10.8571C17.674 8.98524 16.4009 7.35196 14.5847 6.89867C12.7685 6.44537 10.8773 7.28887 10.001 8.943C9.12473 10.5971 9.48926 12.6356 10.8845 13.8836V19L13.5988 17.7157L16.3131 19V13.8836C17.1759 13.1141 17.6696 12.0132 17.6702 10.8571ZM14.9559 16.8557L13.5988 16.2133L12.2416 16.8557V14.6911C13.1187 15.0078 14.0789 15.0078 14.9559 14.6911V16.8557ZM13.5988 13.5714C12.0997 13.5714 10.8845 12.3562 10.8845 10.8571C10.8845 9.35808 12.0997 8.14286 13.5988 8.14286C15.0978 8.14286 16.3131 9.35808 16.3131 10.8571C16.3114 12.3555 15.0971 13.5697 13.5988 13.5714ZM3.4202 8.14286H8.1702V9.5H3.4202V8.14286ZM3.4202 4.07143H10.2059V5.42857H3.4202V4.07143ZM1.38449 19C0.635283 18.9992 0.0281292 18.3921 0.0273438 17.6429V1.35714C0.0281292 0.607939 0.635283 0.000785424 1.38449 0H12.2416C12.9908 0.000785424 13.598 0.607939 13.5988 1.35714V4.07143H12.2416V1.35714H1.38449V17.6429H8.1702V19H1.38449Z" fill="black"/>
</svg>
