<svg width="14" height="14" viewBox="0 0 14 14" fill="none" xmlns="http://www.w3.org/2000/svg">
<path d="M9.33342 9.33333L7.00008 7L4.66675 9.33333" stroke="black" stroke-opacity="0.7" stroke-linecap="round" stroke-linejoin="round"/>
<path d="M7 7V12.25" stroke="black" stroke-opacity="0.7" stroke-linecap="round" stroke-linejoin="round"/>
<path d="M11.8943 10.7275C12.4632 10.4173 12.9127 9.92652 13.1717 9.33253C13.4307 8.73855 13.4846 8.07522 13.3247 7.44724C13.1649 6.81925 12.8005 6.26238 12.289 5.86451C11.7775 5.46664 11.1481 5.25043 10.5001 5.25H9.7651C9.58853 4.56706 9.25944 3.93303 8.80257 3.39558C8.34569 2.85813 7.77293 2.43125 7.12732 2.14702C6.48172 1.8628 5.78009 1.72863 5.07517 1.7546C4.37025 1.78057 3.68039 1.96601 3.05745 2.29697C2.43452 2.62794 1.89471 3.09581 1.47863 3.66542C1.06254 4.23504 0.781001 4.89156 0.65517 5.58565C0.52934 6.27973 0.562494 6.99331 0.75214 7.67274C0.941786 8.35216 1.28299 8.97976 1.7501 9.50833" stroke="black" stroke-opacity="0.7" stroke-linecap="round" stroke-linejoin="round"/>
<path d="M9.33342 9.33333L7.00008 7L4.66675 9.33333" stroke="black" stroke-opacity="0.7" stroke-linecap="round" stroke-linejoin="round"/>
</svg>
