<svg width="19" height="19" viewBox="0 0 19 19" fill="none" xmlns="http://www.w3.org/2000/svg">
<path fill-rule="evenodd" clip-rule="evenodd" d="M19 19H17.6429V15.6071C17.6407 13.7342 16.1229 12.2164 14.25 12.2143V10.8571C16.8721 10.8601 18.9971 12.985 19 15.6071V19ZM13.5714 19H12.2143V15.6071C12.2121 13.7342 10.6943 12.2165 8.82143 12.2143H4.75C2.87709 12.2165 1.35935 13.7342 1.35714 15.6071V19H0V15.6071C0.00306619 12.9851 2.12792 10.8602 4.75 10.8571H8.82143C11.4435 10.8602 13.5684 12.9851 13.5714 15.6071V19ZM12.2143 0V1.35714C14.0881 1.35714 15.6071 2.87618 15.6071 4.75C15.6071 6.62382 14.0881 8.14286 12.2143 8.14286V9.5C14.8376 9.5 16.9643 7.37335 16.9643 4.75C16.9643 2.12665 14.8376 0 12.2143 0ZM6.78571 1.35714C8.65954 1.35714 10.1786 2.87618 10.1786 4.75C10.1786 6.62382 8.65954 8.14286 6.78571 8.14286C4.91189 8.14286 3.39286 6.62382 3.39286 4.75C3.39286 2.87618 4.91189 1.35714 6.78571 1.35714ZM6.78571 0C4.16236 0 2.03571 2.12665 2.03571 4.75C2.03571 7.37335 4.16236 9.5 6.78571 9.5C9.40907 9.5 11.5357 7.37335 11.5357 4.75C11.5357 3.49022 11.0353 2.28204 10.1445 1.39124C9.25367 0.500445 8.04549 0 6.78571 0Z" fill="black"/>
</svg>
